<?xml version="1.0" encoding="UTF-8"?>
<svg width="185px" height="24px" viewBox="0 0 185 24" version="1.1" xmlns="http://www.w3.org/2000/svg" xmlns:xlink="http://www.w3.org/1999/xlink">
    <g id="Mobile" stroke="none" stroke-width="1" fill="none" fill-rule="evenodd">
        <g id="Cart" transform="translate(-20.000000, -40.000000)" fill="#FFFFFF" fill-rule="nonzero">
            <g id="Logo" transform="translate(20.000000, 40.000000)">
                <g id="noun_Running_1473810" transform="translate(150.197508, 0.000000)">
                    <g id="Group">
                        <path d="M11.7819502,20.6181818 C11.7819502,20.2909091 11.5617268,20.0727273 11.2313918,20.0727273 L1.65167526,20.0727273 C1.32134021,20.0727273 1.10111684,20.2909091 1.10111684,20.6181818 C1.10111684,20.9454545 1.32134021,21.1636364 1.65167526,21.1636364 L11.2313918,21.1636364 C11.5617268,21.1636364 11.7819502,20.8909091 11.7819502,20.6181818 Z" id="Path"></path>
                        <path d="M3.85390895,22.8 L2.75279211,22.8 C2.42245705,22.8 2.20223368,23.0181818 2.20223368,23.3454545 C2.20223368,23.6727273 2.42245705,23.8909091 2.75279211,23.8909091 L3.85390895,23.8909091 C4.184244,23.8909091 4.40446737,23.6727273 4.40446737,23.3454545 C4.40446737,23.0181818 4.184244,22.8 3.85390895,22.8 Z" id="Path"></path>
                        <path d="M6.44153353,17.8909091 C6.44153353,17.5636364 6.22131016,17.3454545 5.8909751,17.3454545 L0.550558421,17.3454545 C0.220223368,17.3454545 0,17.5636364 0,17.8909091 C0,18.2181818 0.220223368,18.4363636 0.550558421,18.4363636 L5.8909751,18.4363636 C6.22131016,18.4363636 6.44153353,18.1636364 6.44153353,17.8909091 Z" id="Path"></path>
                        <path d="M33.8042871,18.8181818 C33.6391195,18.4909091 33.3087845,18.2181818 32.9784494,18.0545455 L28.7942054,16.4727273 L28.7942054,16.4727273 L28.7942054,16.4727273 L27.0874743,15.8727273 C26.5919717,15.6545455 26.151525,15.3272727 25.8762458,14.8909091 L24.4447939,12.5454545 C24.7200731,12.4909091 24.8852406,12.2727273 24.8852406,12 C24.8852406,11.6727273 24.6650173,11.4545455 24.3346822,11.4545455 L23.7841238,11.4545455 L23.1234537,10.3636364 C23.3987329,10.3090909 23.5639004,10.0909091 23.5639004,9.81818182 C23.5639004,9.49090909 23.3436771,9.27272727 23.013342,9.27272727 L22.4627836,9.27272727 L21.9122252,8.4 C22.1324485,8.34545455 22.2976161,8.12727273 22.2976161,7.90909091 C22.2976161,7.58181818 22.0773927,7.36363636 21.7470576,7.36363636 L21.2515551,7.36363636 L20.5358291,6.21818182 C20.5358291,6.21818182 20.5358291,6.16363636 20.4807733,6.16363636 C19.8201032,5.4 18.9392097,5.01818182 18.0032604,5.12727273 C17.1774227,5.23636364 16.5167526,5.72727273 16.2414734,6.32727273 C16.1864176,6.49090909 16.1864176,6.65454545 16.2965293,6.81818182 L20.8661642,14.5636364 C20.92122,14.6727273 21.0313317,14.7818182 21.1414434,14.7818182 L26.7571393,16.9090909 L26.8121951,16.9090909 L28.4638704,17.5090909 L28.4638704,17.5090909 L28.4638704,17.5090909 L28.4638704,17.5090909 L28.4638704,17.5090909 L28.4638704,17.5090909 L32.5930585,19.0909091 C32.7031702,19.1454545 32.8132819,19.2 32.8683377,19.3636364 C33.0885611,19.8 33.0885611,20.2363636 32.8132819,20.6727273 L23.8391796,20.6727273 C23.2886212,20.6727273 22.7380628,20.5090909 22.2976161,20.1818182 L6.9370361,8.89090909 C6.9370361,8.89090909 7.15725947,8.78181818 7.43253868,8.4 C7.70781789,8.01818182 7.81792958,7.52727273 7.81792958,7.03636364 L7.322427,2.45454545 L7.9830971,1.41818182 C8.14826463,1.2 8.47859968,1.14545455 8.69882305,1.30909091 C8.86399058,1.47272727 9.52466068,2.01818182 11.1212801,4.58181818 C11.9471177,5.78181818 13.2684579,6.65454545 14.7549657,6.87272727 C15.0302449,6.92727273 15.3605799,6.70909091 15.4156358,6.43636364 C15.4706916,6.16363636 15.2504683,5.83636364 14.9751891,5.78181818 C13.8190164,5.56363636 12.7178995,4.90909091 12.0572294,3.92727273 C10.1302749,0.981818182 9.57971653,0.545454545 9.35949316,0.381818182 C8.64376721,-0.109090909 7.65276205,0.0545454545 7.10220363,0.763636364 L3.74379726,6.05454545 C3.52357389,6.38181818 3.46851805,6.76363636 3.52357389,7.14545455 C3.19323884,7.25454545 2.86290379,7.41818182 2.69773626,7.74545455 L1.81684279,9.10909091 C1.32134021,9.81818182 1.54156358,10.8 2.25728953,11.2909091 C2.75279211,11.6727273 3.79885311,12.3272727 5.34041668,13.3090909 C5.45052837,13.3636364 5.56064005,13.4181818 5.61569589,13.4181818 C5.78086342,13.4181818 5.94603095,13.3090909 6.05614263,13.1454545 C6.22131016,12.8727273 6.16625432,12.5454545 5.8909751,12.3818182 C4.40446737,11.4 3.35840637,10.7454545 2.86290379,10.3636364 C2.64268042,10.2 2.58762458,9.92727273 2.75279211,9.65454545 L3.57862974,8.4 C3.74379726,8.18181818 4.07413232,8.12727273 4.29435568,8.29090909 L4.29435568,8.29090909 L21.5818901,21.0545455 C22.2425602,21.5454545 23.013342,21.7636364 23.7841238,21.7636364 L31.38183,21.7636364 C30.2256573,22.3090909 28.6290379,22.8 27.2526418,22.8 L27.2526418,22.8 L25.3256874,22.8 L23.7290679,22.8 L23.7290679,22.8 C22.7931186,22.8 21.8571693,22.5272727 21.0863875,22.0363636 C17.8931487,20.0181818 11.9471177,16.2545455 7.59770621,13.4727273 C7.322427,13.3090909 6.99209195,13.3636364 6.82692442,13.6363636 C6.66175689,13.9090909 6.71681274,14.2363636 6.99209195,14.4 C11.2313918,17.1272727 17.0122552,20.7818182 20.2605499,22.8545455 L6.05614263,22.8545455 C5.72580758,22.8545455 5.50558421,23.0727273 5.50558421,23.4 C5.50558421,23.7272727 5.72580758,23.9454545 6.05614263,23.9454545 L23.7290679,23.9454545 L23.7290679,23.9454545 L25.3256874,23.9454545 L27.197586,23.9454545 L27.197586,23.9454545 C29.4548755,23.9454545 32.7031702,22.7454545 33.5290078,21.6 C34.2447338,20.6181818 34.2997896,19.6909091 33.8042871,18.8181818 Z M21.6369459,13.9090909 L17.3425903,6.65454545 C17.5077578,6.49090909 17.783037,6.32727273 18.1133721,6.27272727 C18.4437071,6.21818182 19.0493214,6.27272727 19.5998798,6.87272727 L19.9302148,7.41818182 L19.4347123,7.41818182 C19.1043772,7.41818182 18.8841538,7.63636364 18.8841538,7.96363636 C18.8841538,8.29090909 19.1043772,8.50909091 19.4347123,8.50909091 L20.5908849,8.50909091 L21.1414434,9.38181818 L20.7009966,9.38181818 C20.3706616,9.38181818 20.1504382,9.6 20.1504382,9.92727273 C20.1504382,10.2545455 20.3706616,10.4727273 20.7009966,10.4727273 L21.8021135,10.4727273 L22.4627836,11.5090909 L22.0223368,11.5090909 C21.6920018,11.5090909 21.4717784,11.7272727 21.4717784,12.0545455 C21.4717784,12.3818182 21.6920018,12.6 22.0223368,12.6 L23.1234537,12.6 L24.6650173,15 L21.6369459,13.9090909 Z M4.67974658,6.65454545 L6.38647768,3.98181818 L6.71681274,7.14545455 C6.71681274,7.36363636 6.66175689,7.58181818 6.55164521,7.74545455 C6.44153353,7.90909091 6.22131016,8.34545455 5.72580758,7.96363636 C5.72580758,7.96363636 5.45052837,7.8 4.95502579,7.41818182 C4.62469074,7.14545455 4.56963489,6.87272727 4.67974658,6.65454545 Z" id="Shape"></path>
                    </g>
                </g>
                <path d="M5.66450319,18.3138021 L3.80568522,18.3138021 L3.80568522,23.3333333 L0.371763594,23.3333333 L0.371763594,9.11458333 L5.97756727,9.11458333 C7.66681731,9.11458333 8.98754319,9.48892855 9.93978452,10.2376302 C10.8920259,10.9863319 11.3681394,12.044264 11.3681394,13.4114583 C11.3681394,14.4010466 11.1675847,15.2213509 10.7664694,15.8723958 C10.365354,16.5234408 9.73760158,17.0507792 8.88319325,17.4544271 L11.857302,23.186849 L11.857302,23.3333333 L8.17879907,23.3333333 L5.66450319,18.3138021 Z M3.80568522,15.6673177 L5.97756727,15.6673177 C6.62978736,15.6673177 7.12057562,15.496421 7.44994677,15.1546224 C7.77931791,14.8128238 7.94400102,14.3359406 7.94400102,13.7239583 C7.94400102,13.1119761 7.77768739,12.6318377 7.44505514,12.2835286 C7.11242289,11.9352196 6.62326516,11.7610677 5.97756727,11.7610677 L3.80568522,11.7610677 L3.80568522,15.6673177 Z M25.5049392,16.5169271 C25.5049392,17.9036528 25.2473161,19.130854 24.7320623,20.1985677 C24.2168084,21.2662814 23.4847023,22.0882133 22.5357221,22.664388 C21.5867419,23.2405628 20.5057033,23.5286458 19.2925739,23.5286458 C18.0794445,23.5286458 17.0032975,23.2503283 16.0641006,22.6936849 C15.1249036,22.1370415 14.3927976,21.341151 13.8677604,20.3059896 C13.3427232,19.2708282 13.0671644,18.082689 13.0410756,16.7415365 L13.0410756,15.9407552 C13.0410756,14.5475191 13.2970681,13.3186902 13.8090609,12.2542318 C14.3210537,11.1897733 15.0547903,10.3678414 16.0102927,9.78841146 C16.9657951,9.20898148 18.0533558,8.91927083 19.2730074,8.91927083 C20.4796146,8.91927083 21.5557616,9.2057263 22.5014807,9.77864583 C23.4471998,10.3515654 24.182567,11.1669869 24.7076041,12.2249349 C25.2326413,13.2828829 25.498417,14.4954359 25.5049392,15.8626302 L25.5049392,16.5169271 Z M22.0123181,15.921224 C22.0123181,14.5084565 21.7758918,13.4358761 21.3030323,12.7034505 C20.8301727,11.971025 20.1535045,11.6048177 19.2730074,11.6048177 C17.5511463,11.6048177 16.641313,12.8938673 16.5434799,15.4720052 L16.5336967,16.5169271 C16.5336967,17.9101632 16.7652314,18.981116 17.2283076,19.7298177 C17.6913839,20.4785194 18.3794658,20.8528646 19.2925739,20.8528646 C20.1600266,20.8528646 20.8285422,20.4850297 21.2981407,19.749349 C21.7677391,19.0136682 22.0057959,17.9557361 22.0123181,16.5755208 L22.0123181,15.921224 Z M38.8003793,18.5188802 C38.7547239,19.5084685 38.4873177,20.3824832 37.9981526,21.1409505 C37.5089876,21.8994179 36.8225362,22.4869771 35.938778,22.9036458 C35.0550198,23.3203146 34.0457243,23.5286458 32.9108613,23.5286458 C31.0389897,23.5286458 29.5649944,22.919928 28.4888312,21.702474 C27.4126681,20.48502 26.8745946,18.7662871 26.8745946,16.546224 L26.8745946,15.843099 C26.8745946,14.4498628 27.1175429,13.2307995 27.6034469,12.1858724 C28.0893508,11.1409453 28.7888464,10.3336617 29.7019545,9.7639974 C30.6150627,9.19433309 31.6716434,8.90950521 32.8717283,8.90950521 C34.6001116,8.90950521 35.9893195,9.36360223 37.0393939,10.2718099 C38.0894682,11.1800176 38.6862407,12.4316326 38.8297291,14.0266927 L35.4055907,14.0266927 C35.3795019,13.160803 35.1610115,12.5390644 34.7501128,12.1614583 C34.3392142,11.7838523 33.7130923,11.5950521 32.8717283,11.5950521 C32.01732,11.5950521 31.3911981,11.9140593 30.9933439,12.5520833 C30.5954896,13.1901074 30.3867823,14.2089774 30.3672157,15.608724 L30.3672157,16.6145833 C30.3672157,18.131518 30.5579872,19.2154915 30.939536,19.8665365 C31.3210847,20.5175814 31.9781866,20.843099 32.9108613,20.843099 C33.7000477,20.843099 34.3033422,20.6575539 34.7207631,20.2864583 C35.1381839,19.9153627 35.3599354,19.3261759 35.3860242,18.5188802 L38.8003793,18.5188802 Z M45.2671092,18.0403646 L43.8583209,19.5833333 L43.8583209,23.3333333 L40.4243993,23.3333333 L40.4243993,9.11458333 L43.8583209,9.11458333 L43.8583209,15.3841146 L45.0518777,13.577474 L48.123819,9.11458333 L52.3697505,9.11458333 L47.5563903,15.4036458 L52.3697505,23.3333333 L48.2999175,23.3333333 L45.2671092,18.0403646 Z M62.074737,17.3079427 L56.6743816,17.3079427 L56.6743816,20.6966146 L63.0530622,20.6966146 L63.0530622,23.3333333 L53.24046,23.3333333 L53.24046,9.11458333 L63.0726288,9.11458333 L63.0726288,11.7610677 L56.6743816,11.7610677 L56.6743816,14.7591146 L62.074737,14.7591146 L62.074737,17.3079427 Z M75.82999,11.7610677 L71.5547087,11.7610677 L71.5547087,23.3333333 L68.120787,23.3333333 L68.120787,11.7610677 L63.9237717,11.7610677 L63.9237717,9.11458333 L75.82999,9.11458333 L75.82999,11.7610677 Z M84.4686019,19.5540365 C84.4686019,19.0527319 84.2908746,18.6621108 83.9354147,18.3821615 C83.5799547,18.1022121 82.9554633,17.8125015 82.0619218,17.5130208 C81.1683803,17.2135402 80.4379047,16.9238295 79.8704733,16.6438802 C78.0246904,15.7389278 77.1018128,14.4954506 77.1018128,12.9134115 C77.1018128,12.1256471 77.3317169,11.4306671 77.7915321,10.8284505 C78.2513473,10.226234 78.9019271,9.75748866 79.743291,9.42220052 C80.5846549,9.08691239 81.5303599,8.91927083 82.5804342,8.91927083 C83.6044197,8.91927083 84.5224058,9.10156068 85.3344198,9.46614583 C86.1464338,9.83073099 86.7774473,10.3499315 87.2274791,11.023763 C87.677511,11.6975945 87.9025236,12.4674436 87.9025236,13.3333333 L84.4783852,13.3333333 C84.4783852,12.7539034 84.3006579,12.3046891 83.9451979,11.9856771 C83.589738,11.6666651 83.1087329,11.5071615 82.5021682,11.5071615 C81.8890813,11.5071615 81.4048151,11.6422513 81.0493552,11.9124349 C80.6938952,12.1826185 80.5161679,12.5260396 80.5161679,12.9427083 C80.5161679,13.3072935 80.711831,13.6376938 81.1031631,13.9339193 C81.4944951,14.2301447 82.182577,14.5361312 83.1674293,14.851888 C84.1522817,15.1676448 84.9610225,15.5078107 85.593676,15.8723958 C87.1329154,16.7578169 87.9025236,17.9785078 87.9025236,19.5345052 C87.9025236,20.778001 87.4329321,21.7545537 86.4937352,22.4641927 C85.5545383,23.1738317 84.2664229,23.5286458 82.6293505,23.5286458 C81.4749209,23.5286458 80.4297539,23.3219422 79.493818,22.9085286 C78.5578822,22.4951151 77.8534951,21.9287145 77.3806355,21.2093099 C76.9077759,20.4899053 76.6713497,19.661463 76.6713497,18.7239583 L80.1150546,18.7239583 C80.1150546,19.4856809 80.3123482,20.0471987 80.7069413,20.4085286 C81.1015345,20.7698586 81.7423311,20.9505208 82.6293505,20.9505208 C83.1967819,20.9505208 83.6451765,20.8284517 83.9745477,20.5843099 C84.3039188,20.3401681 84.4686019,19.996747 84.4686019,19.5540365 Z M101.569727,23.3333333 L98.1553722,23.3333333 L98.1553722,17.3958333 L93.0974306,17.3958333 L93.0974306,23.3333333 L89.663509,23.3333333 L89.663509,9.11458333 L93.0974306,9.11458333 L93.0974306,14.7591146 L98.1553722,14.7591146 L98.1553722,9.11458333 L101.569727,9.11458333 L101.569727,23.3333333 Z M115.80436,16.5169271 C115.80436,17.9036528 115.546737,19.130854 115.031483,20.1985677 C114.516229,21.2662814 113.784123,22.0882133 112.835143,22.664388 C111.886162,23.2405628 110.805124,23.5286458 109.591994,23.5286458 C108.378865,23.5286458 107.302718,23.2503283 106.363521,22.6936849 C105.424324,22.1370415 104.692218,21.341151 104.167181,20.3059896 C103.642144,19.2708282 103.366585,18.082689 103.340496,16.7415365 L103.340496,15.9407552 C103.340496,14.5475191 103.596489,13.3186902 104.108481,12.2542318 C104.620474,11.1897733 105.354211,10.3678414 106.309713,9.78841146 C107.265216,9.20898148 108.352776,8.91927083 109.572428,8.91927083 C110.779035,8.91927083 111.855182,9.2057263 112.800901,9.77864583 C113.74662,10.3515654 114.481987,11.1669869 115.007025,12.2249349 C115.532062,13.2828829 115.797837,14.4954359 115.80436,15.8626302 L115.80436,16.5169271 Z M112.311738,15.921224 C112.311738,14.5084565 112.075312,13.4358761 111.602453,12.7034505 C111.129593,11.971025 110.452925,11.6048177 109.572428,11.6048177 C107.850567,11.6048177 106.940733,12.8938673 106.8429,15.4720052 L106.833117,16.5169271 C106.833117,17.9101632 107.064652,18.981116 107.527728,19.7298177 C107.990804,20.4785194 108.678886,20.8528646 109.591994,20.8528646 C110.459447,20.8528646 111.127963,20.4850297 111.597561,19.749349 C112.06716,19.0136682 112.305216,17.9557361 112.311738,16.5755208 L112.311738,15.921224 Z M126.409405,17.3079427 L121.00905,17.3079427 L121.00905,20.6966146 L127.387731,20.6966146 L127.387731,23.3333333 L117.575128,23.3333333 L117.575128,9.11458333 L127.407297,9.11458333 L127.407297,11.7610677 L121.00905,11.7610677 L121.00905,14.7591146 L126.409405,14.7591146 L126.409405,17.3079427 Z M136.133958,19.5540365 C136.133958,19.0527319 135.956231,18.6621108 135.600771,18.3821615 C135.245311,18.1022121 134.62082,17.8125015 133.727278,17.5130208 C132.833737,17.2135402 132.103261,16.9238295 131.53583,16.6438802 C129.690047,15.7389278 128.767169,14.4954506 128.767169,12.9134115 C128.767169,12.1256471 128.997073,11.4306671 129.456888,10.8284505 C129.916704,10.226234 130.567283,9.75748866 131.408647,9.42220052 C132.250011,9.08691239 133.195716,8.91927083 134.245791,8.91927083 C135.269776,8.91927083 136.187762,9.10156068 136.999776,9.46614583 C137.81179,9.83073099 138.442804,10.3499315 138.892835,11.023763 C139.342867,11.6975945 139.56788,12.4674436 139.56788,13.3333333 L136.143742,13.3333333 C136.143742,12.7539034 135.966014,12.3046891 135.610554,11.9856771 C135.255094,11.6666651 134.774089,11.5071615 134.167525,11.5071615 C133.554438,11.5071615 133.070171,11.6422513 132.714712,11.9124349 C132.359252,12.1826185 132.181524,12.5260396 132.181524,12.9427083 C132.181524,13.3072935 132.377187,13.6376938 132.768519,13.9339193 C133.159851,14.2301447 133.847933,14.5361312 134.832786,14.851888 C135.817638,15.1676448 136.626379,15.5078107 137.259032,15.8723958 C138.798272,16.7578169 139.56788,17.9785078 139.56788,19.5345052 C139.56788,20.778001 139.098288,21.7545537 138.159092,22.4641927 C137.219895,23.1738317 135.931779,23.5286458 134.294707,23.5286458 C133.140277,23.5286458 132.09511,23.3219422 131.159174,22.9085286 C130.223239,22.4951151 129.518851,21.9287145 129.045992,21.2093099 C128.573132,20.4899053 128.336706,19.661463 128.336706,18.7239583 L131.780411,18.7239583 C131.780411,19.4856809 131.977705,20.0471987 132.372298,20.4085286 C132.766891,20.7698586 133.407687,20.9505208 134.294707,20.9505208 C134.862138,20.9505208 135.310533,20.8284517 135.639904,20.5843099 C135.969275,20.3401681 136.133958,19.996747 136.133958,19.5540365 Z" id="ROCKETSHOES"></path>
            </g>
        </g>
    </g>
</svg>
